<?xml version="1.0" encoding="utf-8"?>
<!-- Generator: Adobe Illustrator 24.0.1, SVG Export Plug-In . SVG Version: 6.00 Build 0)  -->
<svg version="1.1" id="Layer_1" xmlns="http://www.w3.org/2000/svg" xmlns:xlink="http://www.w3.org/1999/xlink" x="0px" y="0px"
	 viewBox="0 0 310 310" style="enable-background:new 0 0 310 310;" xml:space="preserve">
<style type="text/css">
	.st0{fill:#FFFFFF;}
</style>
<path class="st0" d="M134.4,39.8c1.8,2.7,3.9,4.6,4.7,7c1.9,5.7-3,11.8-9,11.1c-5.7-0.6-11.4-2.1-17.1-3.4
	c-4.9-1.1-9.7-2.4-14.5-3.7c-8-2.2-10.5-7.8-5.8-14.6c5.7-8.3,11.8-16.4,17.9-24.4c3.1-4.2,8.3-5.5,12.2-3.4c3.7,2,5.2,6.3,3.8,11.3
	c-0.2,0.7-0.4,1.5-0.5,2.1c9.5-0.8,18.7-2.5,27.9-2.3c12.5,0.3,25.4,0.7,37.5,3.4c34.9,7.7,62.8,26.7,83.8,55.6
	c12.6,17.3,20.5,36.5,24.4,57.6c2.9,15.2,3.5,30.5,1.2,45.7c-4.3,28.9-15.8,54.6-35.6,76.3c-12.3,13.5-26.4,24.6-43,32.3
	c-6.3,2.9-10.7,1.8-13.2-3.2c-2.4-4.9-0.3-9.9,5.7-13c11.3-5.8,21.6-12.9,30.8-21.7c18.6-18,31.1-39.6,36-65.1
	c6.9-36.1-0.6-69.2-22-99.2c-18.7-26.1-44.1-42-75.4-48.6C167.9,36.1,151.4,35.5,134.4,39.8z"/>
<path class="st0" d="M112.8,142.1c-9.3,0-17.8-0.1-26.2,0c-4.3,0.1-8.4-0.3-10.9-4.5c-2.4-4.1-1.3-7.8,1-11.7
	c9-15.4,17.7-31,26.6-46.5c3.8-6.6,8.7-11.4,17.3-9.8c5.5,1,9.7,5.2,9.9,10.9c0.4,12.3,0.6,24.6,0.6,36.9c0,3.6,0.3,6.3,4.4,7.6
	c3.6,1.1,5.4,4.1,5.4,8.1c0,4.4-2.5,7-6.2,8c-3.5,1-4.4,2.8-4.1,6.1c0.2,2.5,0.1,5,0,7.5c-0.1,6.5-2.9,9.9-8.4,10.1
	c-5.5,0.2-9.2-3.6-9.4-10C112.6,150.9,112.8,146.7,112.8,142.1z M98.8,123.7c5.1,0,9.2,0,13.5,0c0-7.5,0-14.7,0-22
	c-0.3-0.1-0.6-0.2-0.9-0.2C107.4,108.6,103.3,115.8,98.8,123.7z"/>
<path class="st0" d="M39.4,148.7c7.5,0,14.2-0.1,20.9,0c6.6,0.1,10.4,3.4,10.3,8.9c-0.1,5.2-4.3,8.9-10.5,9c-11.7,0.1-23.3,0-35,0
	c-4.7,0-8.8-0.9-11.4-5.5c-2.6-4.8-0.4-8.8,2.3-12.4c7.2-10.1,14.8-20,21.9-30.1c3.5-5,6.6-10.3,9.4-15.7c3.5-6.7,1.5-11.8-4.9-14.6
	c-5.8-2.5-12,0.7-14.8,7.2c-1.1,2.5-3,5-5.2,6.6c-3.2,2.4-7.3,1.3-9.5-1.3c-1.9-2.2-3.3-6.1-2.8-9c1.9-11.6,13.6-21.6,25-22.1
	C50.2,68.9,61.2,76,65.7,89c3.1,8.8,1.7,16.9-3,24.3c-6.9,10.9-14.4,21.4-21.6,32.1C40.5,146.2,40.2,147.1,39.4,148.7z"/>
<path class="st0" d="M218.6,177c-9.3,0-18.2,0-27.2,0c-6.3,0-9.2-2.4-9.4-7.7c-0.2-6,3.2-9.8,9.3-9.9c14-0.1,28-0.2,42,0
	c7.2,0.1,10.7,5.8,7.9,12.5c-10.2,23.7-20.6,47.4-30.9,71c-1,2.3-1.8,4.6-3,6.8c-2.8,4.9-7.4,6.7-11.7,4.8c-4.6-2-6.8-7.5-4.5-12.7
	c5.2-12.2,10.6-24.3,16-36.4c3.7-8.3,7.3-16.7,10.9-25.1C218.2,179.5,218.3,178.5,218.6,177z"/>
<path class="st0" d="M134.3,195.3c1.8-4.8,4-11.3,6.5-17.6c8-20.2,16.2-40.3,24.2-60.4c2.3-5.8,7.1-8.3,12.7-6.3
	c4.6,1.6,6.4,7.2,4.2,12.6c-0.9,2.1-1.7,4.3-2.6,6.5c-9.1,22.9-18.2,45.9-27.2,68.9c-2.1,5.2-5.8,7.6-11.3,6.6
	C136.4,204.7,134.2,201.9,134.3,195.3z"/>
<path class="st0" d="M96.4,287.5c-0.1-7.8,4.2-12.3,9.8-11c7.8,1.9,15.5,4.7,23,7.7c4.1,1.7,5.5,7.5,3.7,11.2
	c-1.8,3.8-7.1,6.8-10.7,5.5c-7.3-2.7-14.6-5.5-21.6-8.8C98.4,291.2,97.1,288.4,96.4,287.5z"/>
<path class="st0" d="M31.5,186.9c1,0.8,3.8,2.2,4.7,4.3c3.2,7.2,5.8,14.7,8.4,22.2c1.3,3.7-2,8.8-6.1,10.2
	c-4.5,1.5-9.2-0.2-10.8-4.6c-2.6-7-5-14-7.1-21.1C18.9,191.7,23.1,186.8,31.5,186.9z"/>
<path class="st0" d="M168.2,305c-1.2,0-2.3,0.1-3.5,0c-4.9-0.4-8.7-3.5-9.2-7.6c-0.6-4.2,2.1-8.9,6.8-9.7c7.7-1.3,15.5-1.8,23.2-2.1
	c4.7-0.2,7.3,2.9,7.9,7.4c0.6,4.6-1.7,8-6.5,9.2c-6.1,1.4-12.4,2.3-18.6,3.5C168.3,305.4,168.3,305.2,168.2,305z"/>
<path class="st0" d="M81.1,264.7c-1.6,1.9-3.1,5.3-5.4,6c-3.1,0.9-7.8,1-10.2-0.8c-5.8-4.5-10.8-10.1-15.9-15.6
	c-2.8-3-2.3-8.1,0.6-10.9c2.9-2.8,6.8-5.1,10.2-2.1c6.6,5.9,12.6,12.5,18.8,18.9C80.1,261,80.3,262.5,81.1,264.7z"/>
</svg>
