<?xml version="1.0" encoding="utf-8"?>
<!-- Generator: Adobe Illustrator 24.0.1, SVG Export Plug-In . SVG Version: 6.00 Build 0)  -->
<svg version="1.1" id="Layer_1" xmlns="http://www.w3.org/2000/svg" xmlns:xlink="http://www.w3.org/1999/xlink" x="0px" y="0px"
	 viewBox="0 0 524 524" style="enable-background:new 0 0 524 524;" xml:space="preserve">
<g id="Layer_1_1_">
</g>
<g id="Layer_2_1_">
	<g>
		<path d="M520,318.3c0-0.2,0-0.3,0-0.3c0-0.3,0-0.5-0.2-0.8c0-0.2,0-0.3-0.2-0.5c0-0.2-0.2-0.5-0.2-0.6s-0.2-0.3-0.2-0.6
			c0-0.2,0-0.3-0.2-0.3L420.6,59.5c-1.8-4.6-6.2-7.6-11-7.6H114.5c-4.9,0-9.3,3-11,7.6L4.9,315c0,0.2,0,0.3-0.2,0.3
			c0,0.2-0.2,0.3-0.2,0.6c0,0.2-0.2,0.5-0.2,0.6s0,0.3-0.2,0.5c0,0.3-0.2,0.5-0.2,0.8c0,0.2,0,0.3,0,0.3c0,0.3,0,0.6,0,0.9v0.2
			v140.9c0,6.5,5.4,11.9,11.9,11.9h492.3c6.5,0,11.9-5.4,11.9-11.9V319.2V319C520,318.8,520,318.5,520,318.3z M122.6,75.5h278.8
			l89.5,232H339.5c-2.4,0-4.7,0.6-6.6,2.1c-1.5,0.9-2.5,2.1-3.5,3.5l-26.8,39.9h-81.3L194.6,313c-0.3-0.5-0.8-1.2-1.3-1.6
			c-1.2-1.2-2.4-2.1-3.7-2.7c-0.9-0.5-1.9-0.8-2.8-0.9c-0.8-0.2-1.8-0.3-2.5-0.2H33.1L122.6,75.5z M496.3,448.5H27.7V331.3h150.6
			l27,40.2c2.2,3.4,5.9,5.3,9.8,5.3h93.9c4,0,7.6-1.9,9.8-5.3l27-40.2h150.5v117.2H496.3z"/>
	</g>
</g>
</svg>
