<?xml version="1.0" encoding="utf-8"?>
<!-- Generator: Adobe Illustrator 24.0.1, SVG Export Plug-In . SVG Version: 6.00 Build 0)  -->
<svg version="1.1" id="Layer_3" xmlns="http://www.w3.org/2000/svg" xmlns:xlink="http://www.w3.org/1999/xlink" x="0px" y="0px"
	 viewBox="0 0 512 512" style="enable-background:new 0 0 512 512;" xml:space="preserve">
<g>
	<g>
		<path d="M384,16.8c0-5.2-4.2-9.4-9.4-9.4H137.4c-5.2,0-9.4,4.2-9.4,9.4v35.4v0.2c0,0.2,0,0.3,0,0.5c0,0.2,0,0.3,0,0.5v0.2
			l52,350.7V495c0,5.2,4.2,9.4,9.4,9.4h133.2c5.2,0,9.4-4.2,9.4-9.4v-90.9l52-350.7v-0.2c0-0.2,0-0.3,0-0.5c0-0.2,0-0.3,0-0.5v-0.2
			V16.8H384z M146.8,26.2h218.6v16.6H146.8V26.2z M313.1,446.6H198.7V413h114.4V446.6z M198.9,485.9v-20.5h114.4v20.5H198.9z
			 M314.5,394.2H197.6L148.3,61.6H364L314.5,394.2z"/>
		<path d="M318.1,194.6H193.9c-5.2,0-9.4,4.2-9.4,9.4s4.2,9.4,9.4,9.4h124.2c5.2,0,9.4-4.2,9.4-9.4S323.3,194.6,318.1,194.6z"/>
		<path d="M193.9,184.1h124.2c5.2,0,9.4-4.2,9.4-9.4c0-39.4-32.1-71.5-71.5-71.5s-71.5,32.1-71.5,71.5
			C184.5,179.9,188.7,184.1,193.9,184.1z M256,122c25.8,0,47.4,18.8,51.8,43.3H204C208.6,140.7,230.2,122,256,122z"/>
	</g>
</g>
</svg>
