<?xml version="1.0" encoding="utf-8"?>
<!-- Generator: Adobe Illustrator 24.0.1, SVG Export Plug-In . SVG Version: 6.00 Build 0)  -->
<svg version="1.1" id="Layer_2_1_" xmlns="http://www.w3.org/2000/svg" xmlns:xlink="http://www.w3.org/1999/xlink" x="0px" y="0px"
	 viewBox="0 0 256 256" style="enable-background:new 0 0 256 256;" xml:space="preserve">
<style type="text/css">
	.st0{fill:#78181C;}
	.st1{fill:#FFFFFF;}
</style>
<path class="st0" d="M15.5,114.7h87.2c6.7,0,12-5.4,12-12V15.5c0-6.7-5.4-12-12-12H15.5c-6.7,0-12,5.4-12,12v87.2
	C3.5,109.4,8.9,114.7,15.5,114.7z"/>
<path class="st1" d="M15.5,104.7c-1.1,0-2-0.9-2-2V15.5c0-1.1,0.9-2,2-2h87.2c1.1,0,2,0.9,2,2v87.2c0,1.1-0.9,2-2,2H15.5z"/>
<path class="st0" d="M240.5,3.5h-87.2c-6.7,0-12,5.4-12,12v87.2c0,6.7,5.4,12,12,12h87.2c6.7,0,12-5.4,12-12V15.5
	C252.5,8.9,247.1,3.5,240.5,3.5z"/>
<path class="st0" d="M153.3,104.7c-1.1,0-2-0.9-2-2V15.5c0-1.1,0.9-2,2-2h87.2c1.1,0,2,0.9,2,2v87.2c0,1.1-0.9,2-2,2H153.3z"/>
<path class="st0" d="M15.5,252.5h87.2c6.7,0,12-5.4,12-12v-87.2c0-6.7-5.4-12-12-12H15.5c-6.7,0-12,5.4-12,12v87.2
	C3.5,247.1,8.9,252.5,15.5,252.5z"/>
<path class="st0" d="M15.5,242.5c-1.1,0-2-0.9-2-2v-87.2c0-1.1,0.9-2,2-2h87.2c1.1,0,2,0.9,2,2v87.2c0,1.1-0.9,2-2,2H15.5z"/>
<path class="st0" d="M240.5,141.3h-87.2c-6.7,0-12,5.4-12,12v87.2c0,6.7,5.4,12,12,12h87.2c6.7,0,12-5.4,12-12v-87.2
	C252.5,146.6,247.1,141.3,240.5,141.3z"/>
<path class="st0" d="M153.3,242.5c-1.1,0-2-0.9-2-2v-87.2c0-1.1,0.9-2,2-2h87.2c1.1,0,2,0.9,2,2v87.2c0,1.1-0.9,2-2,2H153.3z"/>
</svg>
