<?xml version="1.0" encoding="utf-8"?>
<!-- Generator: Adobe Illustrator 24.0.1, SVG Export Plug-In . SVG Version: 6.00 Build 0)  -->
<svg version="1.1" id="Layer_1" xmlns="http://www.w3.org/2000/svg" xmlns:xlink="http://www.w3.org/1999/xlink" x="0px" y="0px"
	 viewBox="0 0 32 32" style="enable-background:new 0 0 32 32;" xml:space="preserve">
<title></title>
<g id="user_people_person_users_man">
	<path d="M25.2,16.2c-0.5-0.5-1.2-0.5-1.7,0c-0.5,0.5-0.5,1.2,0,1.7c2,2,3.2,4.8,3.2,7.6c0,1.5-4.2,3.6-10.8,3.6S5.2,27,5.2,25.6
		c0-2.9,1.1-5.6,3.1-7.6c0.5-0.5,0.5-1.2,0-1.7c-0.5-0.5-1.2-0.5-1.7,0c-2.5,2.5-3.9,5.8-3.8,9.3c0,3.9,6.8,6,13.1,6
		s13.1-2.1,13.1-6C29.2,22,27.7,18.7,25.2,16.2z"/>
	<path d="M16,17.2c4.6,0,8.4-3.7,8.4-8.4S20.6,0.5,16,0.5S7.6,4.2,7.6,8.8S11.4,17.2,16,17.2z M16,2.9c3.3,0,6,2.7,6,6s-2.7,6-6,6
		s-6-2.7-6-6S12.7,2.9,16,2.9z"/>
</g>
</svg>
