<?xml version="1.0" ?><svg viewBox="0 0 32 32" xmlns="http://www.w3.org/2000/svg"><title/><g data-name="Special Price" id="Special_Price"><path d="M30.46,17a.42.42,0,0,0-.11-.16l-1.27-1.28h0L16.29,2.8a.48.48,0,0,0-.48-.13L5.59,5.22a.53.53,0,0,0-.37.37L4.71,7.65a1.71,1.71,0,0,1-.37-.49,2.86,2.86,0,0,1-.18-2.07c.2-1.08.42-2.31-1.93-3.53a.5.5,0,0,0-.46.88c1.69.89,1.58,1.48,1.41,2.47a3.89,3.89,0,0,0,.27,2.72,2.71,2.71,0,0,0,1,1.09L2.67,15.81a.48.48,0,0,0,.13.48L15.58,29.08h0l1.28,1.27a.42.42,0,0,0,.16.11.43.43,0,0,0,.19,0,.41.41,0,0,0,.19,0,.45.45,0,0,0,.17-.11L30.35,17.57a.45.45,0,0,0,.11-.17A.5.5,0,0,0,30.46,17ZM5.37,9.11a3.71,3.71,0,0,0,.88.1,2.83,2.83,0,0,0,.41,0A1.85,1.85,0,1,0,9.58,7,1.85,1.85,0,0,0,6.42,8.2a2.68,2.68,0,0,1-.8-.07l.5-2L15.78,3.7,28,15.94,15.94,28,3.7,15.78Zm3.25-1.2-.48-.48.12,0a.86.86,0,0,1,.61,1.46A.87.87,0,0,1,7.8,9a4.32,4.32,0,0,0,.67-.24.5.5,0,0,0,.15-.81Zm8.59,21.38-.57-.57L28.72,16.64l.57.57Z"/><path d="M16.07,20.13l.14,0a.5.5,0,0,0,.34-.62L13.74,9.54a.5.5,0,0,0-1,.27l2.82,10A.49.49,0,0,0,16.07,20.13Z"/><path d="M9.77,13.73a2.31,2.31,0,1,0,3.26,0A2.34,2.34,0,0,0,9.77,13.73Zm2.56,2.55a1.31,1.31,0,1,1-.93-2.23,1.34,1.34,0,0,1,.93.38A1.33,1.33,0,0,1,12.33,16.28Z"/><path d="M17.91,16.26a2.31,2.31,0,1,0-1.63-3.93A2.29,2.29,0,0,0,15.61,14a2.33,2.33,0,0,0,.67,1.63A2.29,2.29,0,0,0,17.91,16.26ZM17,13a1.31,1.31,0,0,1,.92-.38,1.33,1.33,0,0,1,.93.38A1.31,1.31,0,0,1,17,14.88a1.26,1.26,0,0,1-.38-.92A1.3,1.3,0,0,1,17,13Z"/></g></svg>